<?xml version="1.0" encoding="UTF-8"?>
<svg width="41px" height="36px" viewBox="0 0 41 36" version="1.1" xmlns="http://www.w3.org/2000/svg" xmlns:xlink="http://www.w3.org/1999/xlink">
    <title>E3804295-7442-418D-A224-50943893A28F</title>
    <g id="Page-1" stroke="none" stroke-width="1" fill="none" fill-rule="evenodd" opacity="0.495210193">
        <g id="My-account" transform="translate(-1313.000000, -452.000000)" fill="#D21BA5" fill-rule="nonzero">
            <g id="add" transform="translate(1313.000000, 452.000000)">
                <circle id="Oval" cx="16" cy="12" r="2.5"></circle>
                <path d="M38.1335878,21.8469828 C36.8358779,20.6400862 35.1946565,19.8480603 33.4007634,19.6217672 L33.4007634,5.81788793 C33.4007634,4.34698276 32.7900763,3.02693966 31.8358779,2.04633621 C30.8435115,1.06573276 29.5076336,0.5 28.019084,0.5 L5.88167939,0.5 C4.39312977,0.5 3.05725191,1.10344828 2.0648855,2.04633621 C1.07251908,3.02693966 0.5,4.34698276 0.5,5.81788793 L0.5,23.2047414 L0.5,24.8265086 L0.5,28.3340517 C0.5,29.8049569 1.11068702,31.125 2.0648855,32.1056034 C3.05725191,33.0862069 4.39312977,33.6519397 5.88167939,33.6519397 L27.2938931,33.6519397 C28.7061069,34.7834052 30.4618321,35.5 32.4083969,35.5 C34.6603053,35.5 36.6832061,34.5948276 38.1335878,33.1616379 C39.5839695,31.7284483 40.5,29.7295259 40.5,27.5043103 C40.5,25.2790948 39.5839695,23.2801724 38.1335878,21.8469828 Z M2.52290076,5.81788793 C2.52290076,4.91271552 2.90458015,4.08297414 3.51526718,3.47952586 C4.1259542,2.87607759 4.96564885,2.49892241 5.88167939,2.49892241 L28.019084,2.49892241 C28.9351145,2.49892241 29.7748092,2.87607759 30.3854962,3.47952586 C30.9961832,4.08297414 31.3778626,4.91271552 31.3778626,5.81788793 L31.3778626,17.5851293 L25.7290076,12.0409483 C25.3473282,11.6637931 24.6984733,11.6260776 24.278626,12.0409483 L15.7671756,20.4892241 L10.0038168,14.7564655 C9.6221374,14.3793103 8.97328244,14.3415948 8.55343511,14.7564655 L2.52290076,20.7909483 L2.52290076,5.81788793 Z M5.84351145,31.6907328 L5.84351145,31.6530172 C4.92748092,31.6530172 4.08778626,31.2758621 3.47709924,30.6724138 C2.90458015,30.0689655 2.52290076,29.2392241 2.52290076,28.3340517 L2.52290076,24.8265086 L2.52290076,23.6196121 L9.31679389,16.90625 L15.0801527,22.6012931 C15.4618321,22.9784483 16.110687,22.9784483 16.5305344,22.6012931 L25.0419847,14.1530172 L30.6145038,19.6971983 C30.5,19.7349138 30.3854962,19.7726293 30.2709924,19.8103448 C30.1183206,19.8480603 29.9656489,19.8857759 29.7748092,19.9612069 C29.6221374,19.9989224 29.4694656,20.0743534 29.3167939,20.112069 C29.2022901,20.1497845 29.1259542,20.1875 29.0114504,20.262931 C28.8587786,20.3383621 28.7442748,20.3760776 28.629771,20.4515086 C28.4389313,20.5646552 28.2480916,20.6778017 28.0572519,20.7909483 C27.9427481,20.8663793 27.8664122,20.9040948 27.7519084,20.9795259 C27.6755725,21.0172414 27.6374046,21.0549569 27.5610687,21.0926724 C27.2175573,21.3189655 26.9122137,21.5829741 26.6450382,21.8846983 C25.1946565,23.3178879 24.278626,25.3168103 24.278626,27.5420259 C24.278626,28.1077586 24.3549618,28.6357759 24.4694656,29.2015086 C24.5076336,29.3523707 24.5458015,29.4655172 24.5839695,29.6163793 C24.6984733,29.9935345 24.8129771,30.3706897 24.9656489,30.7478448 L24.9656489,30.7855603 C25.1183206,31.0872845 25.2709924,31.4267241 25.4618321,31.6907328 L5.84351145,31.6907328 L5.84351145,31.6907328 Z M36.6450382,31.7284483 C35.5381679,32.8221983 34.0496183,33.4633621 32.370229,33.4633621 C30.7671756,33.4633621 29.278626,32.8221983 28.2099237,31.8038793 C28.0572519,31.6530172 27.9045802,31.4644397 27.7519084,31.3135776 C27.6374046,31.200431 27.5229008,31.049569 27.4083969,30.9364224 C27.2557252,30.7478448 27.1412214,30.5215517 27.0267176,30.2952586 C26.9503817,30.1443966 26.8740458,30.03125 26.7977099,29.8803879 C26.721374,29.6918103 26.6450382,29.4655172 26.6068702,29.2392241 C26.5687023,29.0883621 26.4923664,28.8997845 26.4541985,28.7489224 C26.3778626,28.3717672 26.3396947,27.9568966 26.3396947,27.5420259 C26.3396947,25.8825431 27.0267176,24.4116379 28.0954198,23.3178879 C29.2022901,22.2241379 30.6908397,21.5829741 32.370229,21.5829741 C34.0496183,21.5829741 35.5381679,22.2618534 36.6450382,23.3178879 C37.7519084,24.3739224 38.4007634,25.8825431 38.4007634,27.5420259 C38.4007634,29.1637931 37.7137405,30.6346983 36.6450382,31.7284483 Z" id="Shape"></path>
                <path d="M36.4434783,26.9434783 L34.0565217,26.9434783 L34.0565217,24.5565217 C34.0565217,23.9695652 33.5869565,23.5 33,23.5 C32.4130435,23.5 31.9434783,23.9695652 31.9434783,24.5565217 L31.9434783,26.9434783 L29.5565217,26.9434783 C28.9695652,26.9434783 28.5,27.4130435 28.5,28 C28.5,28.5869565 28.9695652,29.0565217 29.5565217,29.0565217 L31.9434783,29.0565217 L31.9434783,31.4434783 C31.9434783,32.0304348 32.4130435,32.5 33,32.5 C33.5869565,32.5 34.0565217,32.0304348 34.0565217,31.4434783 L34.0565217,29.0565217 L36.4434783,29.0565217 C37.0304348,29.0565217 37.5,28.5869565 37.5,28 C37.5,27.4130435 37.0304348,26.9434783 36.4434783,26.9434783 Z" id="Path"></path>
            </g>
        </g>
    </g>
</svg>