<?xml version="1.0" encoding="UTF-8"?>
<svg width="20px" height="20px" viewBox="0 0 20 20" version="1.1" xmlns="http://www.w3.org/2000/svg" xmlns:xlink="http://www.w3.org/1999/xlink">
    <title>34538120-DBE1-4FCE-9823-86B937B587DB</title>
    <g id="Page-1" stroke="none" stroke-width="1" fill="none" fill-rule="evenodd">
        <g id="Home" transform="translate(-793.000000, -1290.000000)" fill="#FFFFFF" fill-rule="nonzero">
            <path d="M812.611108,1305.90321 L810.393904,1304.42495 L808.422869,1303.11117 C808.042483,1302.85809 807.531277,1302.94106 807.25046,1303.30152 L806.030824,1304.86943 C805.768834,1305.20966 805.29755,1305.30743 804.921851,1305.09943 C804.094281,1304.63908 803.115658,1304.20565 800.956384,1302.04361 C798.797109,1299.88156 798.360902,1298.90571 797.900556,1298.07815 C797.69255,1297.70245 797.790322,1297.23116 798.130553,1296.96921 L799.698467,1295.74958 C800.058893,1295.4688 800.1419,1294.9576 799.888816,1294.57717 L798.615392,1292.66684 L797.096775,1290.3889 C796.838301,1290.00117 796.320884,1289.88477 795.921279,1290.12441 L794.169891,1291.1751 C793.696575,1291.45397 793.348649,1291.90427 793.198182,1292.43267 C792.719242,1294.17886 792.62268,1298.03088 798.796054,1304.20424 C804.969428,1310.37761 808.821107,1310.28073 810.5673,1309.80176 C811.095694,1309.65133 811.546001,1309.3034 811.824866,1308.83005 L812.875558,1307.0787 C813.115243,1306.67906 812.998838,1306.16168 812.611108,1305.90321 Z" id="Path-Copy"></path>
        </g>
    </g>
</svg>