<?xml version="1.0" encoding="UTF-8"?>
<svg width="24px" height="24px" viewBox="0 0 24 24" version="1.1" xmlns="http://www.w3.org/2000/svg" xmlns:xlink="http://www.w3.org/1999/xlink">
    <title>FA5A0429-054E-40BA-9D61-CE907A02E229</title>
    <g id="Page-1" stroke="none" stroke-width="1" fill="none" fill-rule="evenodd">
        <g id="Home" transform="translate(-787.000000, -822.000000)" fill="#D30F99" fill-rule="nonzero">
            <path d="M810.533329,841.083851 L807.872685,839.309934 L805.507443,837.733406 C805.050979,837.429707 804.437532,837.529268 804.100551,837.961826 L802.636988,839.843319 C802.322601,840.251595 801.75706,840.368922 801.306221,840.119315 C800.313137,839.5669 799.13879,839.046781 796.54766,836.452328 C793.956531,833.857875 793.433083,832.686857 792.880667,831.693776 C792.63106,831.242937 792.748387,830.677397 793.156664,830.363057 L795.03816,828.899497 C795.470671,828.562563 795.57028,827.949117 795.26658,827.492607 L793.73847,825.200213 L791.91613,822.466683 C791.605961,822.001407 790.985061,821.861721 790.505535,822.149296 L788.403869,823.410125 C787.83589,823.744761 787.418379,824.28513 787.237818,824.9192 C786.66309,827.014628 786.547216,831.637058 793.955265,839.045094 C801.363314,846.45313 805.985329,846.336882 808.080761,845.762107 C808.714832,845.581594 809.255202,845.164083 809.589839,844.596059 L810.85067,842.494443 C811.138292,842.014871 810.998606,841.394019 810.533329,841.083851 Z" id="Path"></path>
        </g>
    </g>
</svg>