<?xml version="1.0" encoding="UTF-8"?>
<svg width="32px" height="27px" viewBox="0 0 32 27" version="1.1" xmlns="http://www.w3.org/2000/svg" xmlns:xlink="http://www.w3.org/1999/xlink">
    <title>68857809-E458-4C1D-B85B-075BB3FF978D</title>
    <g id="Page-1" stroke="none" stroke-width="1" fill="none" fill-rule="evenodd">
        <g id="Home" transform="translate(-1238.000000, -820.000000)" fill="#D30F99" fill-rule="nonzero">
            <g id="2462719" transform="translate(1238.000000, 820.000000)">
                <path d="M4.65782991,27 L2.39040876,27 L3.99375158,25.46358 C4.85825559,24.63516 5.39810883,23.55768 5.54324682,22.38882 C3.28734654,20.97018 1.63773238,19.10376 0.75469478,16.96332 C-0.127716684,14.8245 -0.238605119,12.47004 0.434051261,10.1544 C1.24113874,7.37586 3.13413141,4.84332 5.76420972,3.02322 C8.62226362,1.04544 12.1802108,0 16.0534793,0 C20.9327582,0 25.0454606,1.34334 27.9467804,3.8847 C30.5605166,6.17424 32,9.2625 32,12.58068 C32,14.19276 31.6574418,15.76134 30.9819052,17.24286 C30.2828259,18.77592 29.2591585,20.14098 27.9393294,21.3 C25.0341276,23.85138 20.9239923,25.2 16.0534167,25.2 C14.2453278,25.2 12.3585965,24.9687 10.6741066,24.54426 C9.07965493,26.11164 6.91905234,27 4.65782991,27 Z M16.0534793,1.8 C8.28696856,1.8 3.52139565,6.23838 2.24364281,10.6371 C1.03620489,14.7939 2.81611766,18.72168 7.004958,21.144 L7.4729936,21.41466 L7.45859251,21.93828 C7.43004077,22.97472 7.17219855,23.973 6.71067475,24.8754 C7.83452371,24.51102 8.8543091,23.85042 9.65288114,22.94634 L10.0499757,22.49676 L10.6388553,22.66554 C12.2914123,23.13918 14.2143342,23.4 16.0534793,23.4 C25.719244,23.4 30.1215963,17.79162 30.1215963,12.58068 C30.1215963,9.77412 28.8991311,7.15764 26.6793588,5.21328 C24.1301771,2.98032 20.4557689,1.8 16.0534793,1.8 Z" id="Shape"></path>
            </g>
        </g>
    </g>
</svg>