<?xml version="1.0" encoding="UTF-8"?>
<svg width="20px" height="18px" viewBox="0 0 20 18" version="1.1" xmlns="http://www.w3.org/2000/svg" xmlns:xlink="http://www.w3.org/1999/xlink">
    <title>4A0B0DA9-08BF-47A9-A61A-C00A35F42323</title>
    <g id="Page-1" stroke="none" stroke-width="1" fill="none" fill-rule="evenodd">
        <g id="Home" transform="translate(-909.000000, -1291.000000)" fill="#FFFFFF" fill-rule="nonzero">
            <g id="2462719-copy" transform="translate(909.000000, 1291.000000)">
                <path d="M2.91113581,17.6310187 L1.49399693,17.6310187 L2.49608666,16.628929 C3.03640192,16.0886137 3.37381034,15.3858556 3.46452163,14.6234973 C2.05458331,13.6982265 1.02357398,12.4809029 0.471675224,11.0848569 C-0.0798321959,9.68986757 -0.149137499,8.15423267 0.271272932,6.6439171 C0.775702836,4.83168712 1.95882381,3.1799042 3.60262351,1.99279162 C5.38890802,0.702836391 7.61262601,0.0209755181 10.0334199,0.0209755181 C13.0829707,0.0209755181 15.6534109,0.897133868 17.4667366,2.5546694 C19.1003225,4.04796193 19.9999908,6.06219867 19.9999908,8.22639472 C19.9999908,9.27783169 19.785901,10.3008969 19.3636904,11.2671796 C18.9267657,12.2670778 18.2869733,13.1574025 17.4620797,13.9133429 C15.6463277,15.5774137 13.077492,16.4570158 10.0333808,16.4570158 C8.90332478,16.4570158 7.72411715,16.3061565 6.6713105,16.0293266 C5.67477772,17.0516092 4.32440048,17.6310187 2.91113581,17.6310187 Z M10.0334199,1.1949784 C5.17934851,1.1949784 2.20086407,4.08979557 1.40226817,6.95874554 C0.647619122,9.66990952 1.76006512,12.2317012 4.37809154,13.811596 L4.67061393,13.9881269 L4.66161324,14.3296444 C4.64376839,15.0056352 4.48261693,15.6567372 4.19416442,16.245304 C4.89657035,16.0076467 5.53393651,15.5767876 6.03304427,14.9871251 L6.28122848,14.6938983 L6.64927838,14.8039807 C7.68212698,15.1128999 8.88395373,15.283013 10.0334199,15.283013 C16.0745257,15.283013 18.8259971,11.6250939 18.8259971,8.22639472 C18.8259971,6.39588942 18.061956,4.68935884 16.6745977,3.42120093 C15.0813584,1.96481122 12.7848522,1.1949784 10.0334199,1.1949784 Z" id="Shape"></path>
            </g>
        </g>
    </g>
</svg>