<?xml version="1.0" encoding="UTF-8"?>
<svg width="15px" height="15px" viewBox="0 0 15 15" version="1.1" xmlns="http://www.w3.org/2000/svg" xmlns:xlink="http://www.w3.org/1999/xlink">
    <title>2633C856-7BE8-486B-9191-FBA0AB4D392A</title>
    <g id="Page-1" stroke="none" stroke-width="1" fill="none" fill-rule="evenodd">
        <g id="Home" transform="translate(-594.000000, -1279.000000)" fill="#949494" fill-rule="nonzero">
            <g id="feedback" transform="translate(594.000000, 1279.000000)">
                <path d="M12.803305,2.1972965 C9.87235433,-0.732212266 5.12848347,-0.732652057 2.19712211,2.1972965 C-0.159794389,4.55302416 -0.605170294,8.05581559 0.788246437,10.8453534 L0.015739393,14.241686 C-0.0846703891,14.6831193 0.311160636,15.0789315 0.752987144,14.9785711 L4.15099145,14.2064441 C9.09166314,16.671973 15,13.1024799 15,7.49777902 C15,5.49558496 14.2198662,3.61316074 12.803305,2.1972965 Z M5.69230947,13.4961518 C6.35660393,12.920934 6.71699966,12.0944781 6.71699966,11.25304 C6.71699966,10.9129933 6.44120277,10.6373321 6.10098873,10.6373321 C5.76077469,10.6373321 5.48497779,10.9129933 5.48497779,11.25304 C5.48497779,12.070055 4.90569285,12.785273 4.10754801,12.9536252 C4.09505179,12.9562346 4.21121385,12.9299351 1.43403123,13.560977 L2.03965798,10.8983923 C2.07271723,10.7529973 2.0518902,10.6005363 1.98099027,10.4693612 C-0.24756128,6.34438225 2.73566233,1.23309796 7.50021356,1.23309796 C10.9562696,1.23309796 13.7679781,4.04342327 13.7679781,7.49777902 C13.7679781,11.670314 9.73231451,14.7080994 5.69230947,13.4961518 Z" id="Shape"></path>
                <path d="M11.3420383,6 L4.65796173,6 C4.29457887,6 4,6.22385714 4,6.5 C4,6.77614286 4.29457887,7 4.65796173,7 L11.3420383,7 C11.7054211,7 12,6.77614286 12,6.5 C12,6.22385714 11.7053898,6 11.3420383,6 Z" id="Path"></path>
                <path d="M9.37623762,8 L4.62376238,8 C4.27926733,8 4,8.22385714 4,8.5 C4,8.77614286 4.27926733,9 4.62376238,9 L9.37623762,9 C9.72073267,9 10,8.77614286 10,8.5 C10,8.22385714 9.72073267,8 9.37623762,8 Z" id="Path"></path>
            </g>
        </g>
    </g>
</svg>