<?xml version="1.0" encoding="UTF-8"?>
<svg width="12px" height="12px" viewBox="0 0 12 12" version="1.1" xmlns="http://www.w3.org/2000/svg" xmlns:xlink="http://www.w3.org/1999/xlink">
    <title>8C8FA33E-1961-4BEB-A8B2-09B3018273D0</title>
    <g id="Page-1" stroke="none" stroke-width="1" fill="none" fill-rule="evenodd">
        <g id="Home" transform="translate(-650.000000, -28.000000)" fill="#000000" fill-rule="nonzero">
            <g id="Header">
                <path d="M661.766665,37.5419254 L660.436342,36.6549672 L659.253722,35.8667032 C659.02549,35.7148535 658.718766,35.7646341 658.550276,35.9809128 L657.818494,36.9216593 C657.6613,37.1257975 657.37853,37.1844609 657.15311,37.0596577 C656.656569,36.7834501 656.069395,36.5233907 654.77383,35.226164 C653.478265,33.9289373 653.216541,33.3434287 652.940333,32.8468878 C652.81553,32.6214686 652.874193,32.3386986 653.078332,32.1815286 L654.01908,31.4497483 C654.235336,31.2812815 654.28514,30.9745586 654.13329,30.7463035 L653.369235,29.6001063 L652.458065,28.2333414 C652.302981,28.0007036 651.992531,27.9308607 651.752767,28.074648 L650.701934,28.7050623 C650.417945,28.8723807 650.20919,29.1425649 650.118909,29.4596002 C649.831545,30.5073142 649.773608,32.8185288 653.477633,36.5225469 C657.181657,40.2265651 659.492664,40.1684408 660.54038,39.8810536 C660.857416,39.7907969 661.127601,39.5820416 661.294919,39.2980294 L661.925335,38.2472216 C662.069146,38.0074354 661.999303,37.6970094 661.766665,37.5419254 Z" id="Path"></path>
            </g>
        </g>
    </g>
</svg>