<?xml version="1.0" encoding="UTF-8"?>
<svg width="12px" height="12px" viewBox="0 0 12 12" version="1.1" xmlns="http://www.w3.org/2000/svg" xmlns:xlink="http://www.w3.org/1999/xlink">
    <title>185F8458-5633-4702-BC6D-50A9ADD0C54D</title>
    <defs>
        <polygon id="path-1" points="0 0 12 0 12 12 0 12"></polygon>
    </defs>
    <g id="Page-1" stroke="none" stroke-width="1" fill="none" fill-rule="evenodd">
        <g id="Home" transform="translate(-594.000000, -1305.000000)">
            <g id="rate" transform="translate(594.000000, 1305.000000)">
                <mask id="mask-2" fill="white">
                    <use xlink:href="#path-1"></use>
                </mask>
                <g id="Clip-2"></g>
                <path d="M6.57985261,0.376895343 L7.93303802,3.24388737 C8.02719919,3.44346034 8.20927109,3.58175045 8.41987445,3.61373749 L11.44568,4.07347426 C11.9760489,4.15409544 12.1877921,4.83562694 11.8040145,5.22677613 L9.61455582,7.45841024 C9.46215517,7.61377036 9.39259135,7.83760273 9.42858659,8.05689848 L9.94546194,11.208083 C10.0360567,11.7603977 9.4816051,12.1816116 9.00726957,11.9208327 L6.30089876,10.4330125 C6.11253965,10.3294775 5.88748672,10.3294775 5.69909084,10.4330125 L2.9927568,11.9208327 C2.5183845,12.1816116 1.96396969,11.7603977 2.05456443,11.208083 L2.57143978,8.05689848 C2.60739825,7.83760273 2.53783443,7.61377036 2.38547054,7.45841024 L0.195975088,5.22677613 C-0.18780247,4.83562694 0.023977443,4.15409544 0.55434641,4.07347426 L3.58015192,3.61373749 C3.79075528,3.58175045 3.97279041,3.44346034 4.06698835,3.24388737 L5.42013699,0.376895343 C5.6573599,-0.125631781 6.34266646,-0.125631781 6.57985261,0.376895343" id="Fill-1" fill="#F7B500" mask="url(#mask-2)"></path>
            </g>
        </g>
    </g>
</svg>