<?xml version="1.0" encoding="UTF-8"?>
<svg width="74px" height="72px" viewBox="0 0 74 72" version="1.1" xmlns="http://www.w3.org/2000/svg" xmlns:xlink="http://www.w3.org/1999/xlink">
    <title>E887FEC6-8120-4CAE-A607-6E013B822763</title>
    <g id="Page-1" stroke="none" stroke-width="1" fill="none" fill-rule="evenodd">
        <g id="Standart-pages" transform="translate(-468.000000, -1332.000000)">
            <g id="3021797-copy" transform="translate(468.000000, 1332.000000)">
                <path d="M53,15 C47.3972415,15 43,19.3488314 43,28.538798 C46.8819103,29.6196999 50.8946117,28.9929697 53,24.576925 C55.1055282,28.9931181 59.1182296,29.6198483 63,28.538798 C63,19.3488314 58.9793252,15 53,15 Z" id="Path" fill="#FFCD69"></path>
                <path d="M19.001974,67 L28.4542046,67 L36,67 L36,54.6649404 C35.8801516,47.1464171 28.6461031,46.7507499 23.3464075,45 C23.3464075,47.3902192 21.3920328,49.344866 19.001974,49.344866 C16.6119152,49.344866 14.6535925,47.3903602 14.6535925,45 C9.35389694,46.7507499 2.12393733,47.1464171 2,54.6649404 L2,67 L9.54579535,67 L19.001974,67 L19.001974,67 Z" id="Path" fill="#FF7B79"></path>
                <path d="M44.5488668,67 L54,67 L63.4550807,67 L71,67 L71,54.6649404 C70.9359943,50.9037047 69.0977335,48.9250865 66.6081371,47.66603 C64.1264357,46.4109217 60.9933987,45.875375 58.3478766,45 C58.3478766,47.3902192 56.3897813,49.344866 54,49.344866 C51.6102187,49.344866 49.6560709,47.3903602 49.6560709,45 C47.0066013,45.875375 43.8775118,46.4109217 41.3918629,47.66603 C38.9022665,48.9250865 37.0638647,50.9037047 37,54.6649404 L37,67 L44.5488668,67 L44.5488668,67 Z" id="Path" fill="#A0C8FF"></path>
                <path d="M15,45.1715114 C15,47.8277834 16.8022449,50 19.0018166,50 C21.2013884,50 23,47.8279401 23,45.1715114 L23,42 C22.9374554,42.0310272 22.8712775,42.0665988 22.8087329,42.0977827 C21.6354376,42.7018726 20.3480828,43.0306354 19.0018166,43.0306354 C17.6519172,43.0306354 16.3645624,42.7018726 15.1912671,42.0977827 C15.1287225,42.0667555 15.0661779,42.0311839 15,42 L15,45.1715114 Z" id="Path" fill="#FFD0C7"></path>
                <path d="M66.2491829,47 C63.7708097,45.7354401 60.6419743,45.1958605 58,44.3138935 L58,40.1577947 C61.3763488,38.5187398 63.7229402,35.0231218 63.7229402,31 C63.7229402,37.5603395 68.4480827,40.4115307 72,41.5955372 C71.0980822,45.2683159 69.693253,46.5046039 66.2491829,47 Z" id="Path" fill="#FFCD69"></path>
                <path d="M49,44.3050636 C46.3540835,45.1899298 43.2291903,45.7312832 40.7468749,47 C37.3028048,46.5029754 35.9019178,45.2626234 35,41.5777714 C38.5399499,40.3938638 43.2491829,37.5454157 43.2731177,31 C43.2931102,35.0121156 45.6357593,38.4949934 49,40.1394363 L49,44.3050636 Z" id="Path" fill="#FFCD69"></path>
                <path d="M57.3165018,40.0561224 C56.0086037,40.6612513 54.5460621,41 53.0043811,41 C51.4627001,41 50.0001585,40.6612513 48.6961754,40.0598818 C45.3549809,38.5108754 43.0284771,35.2340226 43.0087622,31.4546187 C42.9890473,27.6752148 43.0087622,31.4546187 43.0087622,31.4508593 C43.0087622,31.4356874 43.0087622,31.4203813 43.0087622,31.4014501 L43.0087622,28.5851235 C46.8889717,29.5632385 50.8999152,28.9961063 53.0043811,25 C55.1089868,28.9962406 59.1199303,29.5633727 63,28.5851235 L63,31.4014501 C63,35.2035446 60.6695812,38.507116 57.3165018,40.0561224 Z" id="Path" fill="#FFDCD5"></path>
                <path d="M8,31.5382915 L8,28.8592352 C11.1087209,28.5616083 13.6451153,28.3774224 15.5474474,26 C19.3314846,28.463643 24.6637086,29.1491243 30,28.7926353 L30,28.8592352 L30,31.5382915 C30,35.8584407 27.2124501,39.5872051 23.2636875,41.17745 C21.9502417,41.7101109 20.5091118,42 19.0020336,42 C17.4908882,42 16.0497583,41.7101109 14.7363125,41.17745 C10.7875499,39.5872051 8,35.8584407 8,31.5382915 Z" id="Path" fill="#FFDCD5"></path>
                <path d="M8,26.0201656 C8,19.9574886 12.9493173,15 19.0020336,15 C25.0506827,15 30,19.9574886 30,26.0201656 L30,28.9072447 C24.6637086,29.2826246 19.3314846,28.5608185 15.5474474,25.966623 C13.6451153,28.4700289 11.1087209,28.6639752 8,28.9773738 L8,26.0201656 Z" id="Path" fill="#FFCD69"></path>
                <path d="M56.9963667,44.8961143 C56.9963667,47.1537642 55.1977551,49 52.9981834,49 C50.7986116,49 49,47.1538974 49,44.8961143 L49,41.0037292 C50.2101473,41.600273 51.5673133,41.9363034 52.9981834,41.9363034 C54.4290534,41.9363034 55.7862194,41.600273 57,41 L56.9963667,44.8961143 Z" id="Path" fill="#FFD0C7"></path>
                <path d="M45,49.368188 C40.3301357,46.210604 33.665716,46.210604 29,49.368188 L29,49.91492 C29,52.4477049 30.5201763,54.6829164 32.7920702,55.9363196 C34.0183152,56.6095334 35.4587863,57 36.9998518,57 C38.5369174,57 39.9815367,56.6095334 41.2034852,55.9363196 C43.4753792,54.6829164 45,52.4477049 45,49.91492 L45,49.368188 L45,49.368188 Z" id="Path" fill="#FFDCD5"></path>
                <path d="M37,40 C32.5821404,40 29,43.7748914 29,48.4404014 L29,50 C33.6655679,46.2383944 40.3301357,46.2383944 45,50 L45,48.466973 C45,43.7750477 41.4178596,40 37,40 Z" id="Path" fill="#FFCD69"></path>
                <path d="M39.9998591,56 C38.8375575,56.8288841 37.4636208,57.3096402 36.0019022,57.3096402 C34.5360974,57.3096402 33.166106,56.8288841 32,56 L32,59.5397601 C32,61.9895804 33.7492999,64 35.8901668,64 C38.1508005,64 40,62.2096038 40,59.5397601 L40,56 L39.9998591,56 Z" id="Path" fill="#FFD0C7"></path>
                <path d="M40.1039306,59 C40.1039306,61.560781 38.206684,63.2782986 35.887313,63.2782986 C33.6909653,63.2782986 31.8960694,61.3500426 31.8960694,59 C27.0279058,60.7218564 22.1105908,61.112807 22,68.5095685 L22,71 L36.0020962,71 L50,71 L50,68.5095685 C49.8894092,61.112807 44.9720942,60.7218564 40.1039306,59 Z" id="Path" fill="#D5EA7A"></path>
                <path d="M44.5236314,9.54298753 C46.4420522,7.64358875 46.4983551,4.48201166 44.6486067,2.51224856 C42.7987162,0.546573003 39.7157075,0.48876331 37.8012678,2.38816209 L36.9992362,3.18275341 L36.1972047,2.38816209 C34.2829071,0.48876331 31.1997562,0.546718987 29.3498657,2.51224856 C27.5040984,4.48201166 27.5564203,7.64358875 29.474841,9.54298753 L36.9992362,17 L44.5236314,9.54298753 Z" id="Path" fill="#FF7B79"></path>
                <g id="Group" fill="#000000" fill-rule="nonzero">
                    <path d="M16.4945754,35 C16.1036422,35 15.7130078,35.1531337 15.4198079,35.4576014 C14.8462599,36.0531881 14.8623993,37.0027372 15.4559722,37.578376 C17.41019,39.4738747 20.58981,39.4738747 22.5440278,37.578376 C23.1376007,37.0027372 23.1537401,36.0531881 22.5801921,35.4576014 C22.006644,34.8620147 21.0605438,34.8458164 20.4671203,35.4214552 C19.658056,36.2060219 18.341944,36.2060219 17.5328797,35.4214552 C17.2429674,35.1399351 16.868622,35 16.4945754,35 L16.4945754,35 Z" id="Path"></path>
                    <path d="M73.9573297,42.4407029 C74.1390054,41.7162936 73.7252126,40.9757514 73.0077598,40.7417533 C69.5841051,39.624444 65.5028335,37.1055727 65.5028335,31.4496407 L65.5028335,28.4549207 C65.5028335,23.8364902 64.4318575,20.2221533 62.3195342,17.7125619 C60.2752851,15.2837778 57.3034349,14 53.7252764,14 C50.2972858,14 47.3802129,15.2787809 45.2891357,17.6982851 C43.1032461,20.2275785 41.9477192,23.9471361 41.9477192,28.4549207 L41.9477192,31.4496407 C41.9477192,34.58199 40.7021495,37.0708798 38.2439631,38.8564902 C37.6577446,38.7407046 37.0520144,38.6788857 36.4318311,38.6788857 C32.4789032,38.6788857 29.0968735,41.1416489 27.7773038,44.5952281 C27.3914055,44.4881514 25.3694143,43.9499127 24.7725005,43.7771624 L24.7725005,42.827321 C28.6342292,40.7527465 31.261228,36.7081041 31.261228,32.0688294 L31.261228,26.3989061 C31.261228,19.649079 25.704004,14.1576168 18.8731711,14.1576168 C12.0401703,14.1576168 6.48106737,19.649079 6.48106737,26.3989061 L6.48106737,32.0688294 C6.48106737,36.7073903 9.10806618,40.7513188 12.970084,42.8261789 L12.970084,43.7770196 C12.3731702,43.94977 11.7531314,44.1153819 11.1114129,44.2867045 C6.21628624,45.5903272 0.122851507,47.2121816 0,54.591905 L0,67.1041696 C0,67.8922538 0.647499706,68.5318584 1.44531184,68.5318584 L20.9886741,68.5318584 L20.9886741,70.5618891 C20.9886741,70.5653155 20.9880959,70.568742 20.9880959,70.5723112 C20.9880959,71.3608237 21.6351621,72 22.4334078,72 L29.9347208,72 C30.7329665,72 31.3800326,71.3608237 31.3800326,70.5723112 C31.3800326,69.7837987 30.7329665,69.1446224 29.9347208,69.1446224 L23.8791532,69.1446224 L23.8791532,68.2892941 C23.896497,67.2442259 24.0366922,66.3876126 24.2881765,65.6766236 C25.1972776,63.1039284 27.5502453,62.4186377 30.7545017,61.4849293 C30.9048141,61.441242 31.0568609,61.3969836 31.2094858,61.3521542 C31.9704425,63.4113098 33.9729221,64.8852557 36.3175069,64.8852557 C38.8567753,64.8852557 40.9037705,63.4557109 41.661692,61.3554379 C41.8107037,61.3989824 41.9589927,61.4422414 42.1059809,61.4847865 C46.1962134,62.6769066 48.8989465,63.4635632 48.9813293,68.2891513 L48.9813293,69.1444796 L42.9136211,69.1444796 C42.1153754,69.1444796 41.4683093,69.7836559 41.4683093,70.5721684 C41.4683093,71.360681 42.1153754,72 42.9136211,72 L50.4272193,72 C51.225465,72 51.8725311,71.360681 51.8725311,70.5721684 C51.8725311,70.5685992 51.871953,70.56503 51.871953,70.5614608 L51.871953,68.5315728 L71.1531357,68.5315728 C71.9513814,68.5315728 72.5984475,67.8923966 72.5984475,67.1038841 L72.5984475,54.614748 C72.5984475,54.6068957 72.5984475,54.5990434 72.598303,54.5911912 C72.5484397,51.6011825 71.5185105,49.5565894 69.9853237,48.0953499 C72.0659946,47.1319455 73.2119824,45.4114378 73.9573297,42.4407029 L73.9573297,42.4407029 Z M53.998605,17 C56.7719474,17 58.9499743,17.8501626 60.4721848,19.5268198 C61.999535,21.2092596 62.8463986,23.6711271 63,26.8502941 C60.2802565,27.2822337 57.0788566,26.9332663 55.308916,23.7281453 C54.7763039,22.7655601 53.2201718,22.7643498 52.6880002,23.7281453 C50.9187939,26.932056 47.7191561,27.2819647 45,26.850832 C45.3398027,20.6597872 48.6479601,17 53.998605,17 Z M45,30.7394341 C45.6227994,30.8175907 46.2289127,30.8569985 46.8161445,30.8569985 C49.7672329,30.8569985 52.2430617,29.8764168 53.9999268,28 C55.7566456,29.8765486 58.232328,30.8569985 61.1838555,30.8569985 C61.7709409,30.8569985 62.3770542,30.8175907 63,30.7394341 L63,31.8957034 C63,36.3644671 58.9627085,40 54.0000732,40 C49.0374379,40 45,36.3644671 45,31.8957034 L45,30.7394341 L45,30.7394341 Z M57,42 L57,44.5070068 C57,46.4329949 55.65327,48 53.9979833,48 C52.3448574,48 51,46.4329949 51,44.5070068 L51,42.0013426 C51.957361,42.2965511 52.9618266,42.4556516 53.9979833,42.4556516 C55.0355805,42.4554838 56.0413426,42.2960477 57,42 Z M43.0101671,37 C43.9588896,38.9563732 45.3401998,40.5885732 47,41.7189877 L47,44.1802515 C46.4485899,44.3695078 45.8770224,44.5499146 45.2845018,44.7368421 C45.0117143,44.8228536 44.7348157,44.9107281 44.4568562,45 C43.7838387,42.9681726 42.5599416,41.2575687 41,40.1235833 C41.8224737,39.1911194 42.4949607,38.1464058 43.0101671,37 L43.0101671,37 Z M30.3393645,45.6106041 C31.2492447,42.9097475 33.4440702,41 36.0014586,41 C38.97253,41 41.4526828,43.5846257 42,46.9986563 C40.1484285,45.9272157 38.0887654,45.3546274 36.0004862,45.3546274 C33.9113735,45.3546274 31.8512936,45.9278876 30,47 C30.0762632,46.5189519 30.1901719,46.0538604 30.3393645,45.6106041 L30.3393645,45.6106041 Z M10,26.6249818 C10,21.869185 14.0382649,18 19.001917,18 C23.9635152,18 28,21.869185 28,26.6249818 L28,27.9824501 C24.4003286,28.0976388 19.8639047,27.6876563 16.5189271,25.4940861 C15.9168366,25.0993222 15.0975717,25.226056 14.6558287,25.7820578 C13.4979308,27.2397587 12.0438487,27.6013304 10,27.8340693 L10,26.6249818 L10,26.6249818 Z M10,32.0937224 L10,30.5306127 C12.2024328,30.2595671 14.2768332,29.8166685 15.9991784,28 C19.7462172,30.3355443 24.3234818,30.8067837 28,30.6833208 L28,32.0937224 C28,37.5560892 23.9634845,42 19.0018486,42 C14.0382956,42 10,37.5560892 10,32.0937224 L10,32.0937224 Z M22,44.0007394 L22,44.9091312 C22,44.9135675 21.9992799,44.9178558 21.9992799,44.9222921 C21.9992799,46.6192976 20.6546807,48 19.0018723,48 C17.3469035,48 16.0004321,46.6192976 16.0004321,44.9222921 C16.0004321,44.9191867 16,44.9160813 16,44.912976 L16,44 C16.9614978,44.2473937 17.9667787,44.3806285 19.0018723,44.3806285 C20.0358137,44.3807763 21.0397984,44.2478373 22,44.0007394 Z M31,58.1763098 C30.6833773,58.2668599 30.3667546,58.354707 30.0544692,58.439851 C26.4863194,59.4237382 22.5075722,60.5197994 21.4015614,65 L10.7373044,65 L10.7373044,59.5319929 C10.7373044,58.785563 10.0900351,58.1804995 9.29153866,58.1804995 C8.49304225,58.1804995 7.84577294,58.785563 7.84577294,59.5319929 L7.84577294,65 L3,65 L3,54.5407926 C3.08674594,49.9322001 6.44959699,48.7536978 11.9753136,47.3616596 C12.4407055,47.2440797 12.9136155,47.1243374 13.3840677,47 C14.1643474,49.1938792 16.3807063,50.7810731 18.987711,50.7810731 C21.5929808,50.7810731 23.8077493,49.1938792 24.5874508,47 C25.0581921,47.1242022 26.8882423,47.5887105 27.3104059,47.7008845 C27.3031771,47.8306278 27.3002855,47.9617227 27.3002855,48.0928176 L27.3002855,50.0038292 C27.3002855,52.8270989 28.7547258,55.3395252 31,56.9180695 L31,58.1763098 Z M39,59.073555 C39,59.0755452 38.9996737,59.0773696 38.9996737,59.0793598 C38.9996737,61.0859939 37.3787928,62 35.8727569,62 C34.288907,62 33.0001631,60.6897753 33.0001631,59.0793598 C33.0001631,59.0778672 33,59.0763745 33,59.074716 L33,58 C33.3964111,58.1210714 33.8026101,58.2205821 34.2185971,58.2918982 C34.7977162,58.3947259 35.3931485,58.4477983 36.0016313,58.4477983 C36.5040783,58.4477983 36.9983687,58.4113111 37.4812398,58.339995 C38,58.2670205 38.5073409,58.1525831 39,58.0016585 L39,59.073555 Z M39.2338557,55.0133892 C37.3994495,56.291504 34.6458613,56.3554026 32.8125469,55.0433417 C31.1567909,53.9553538 30.0455838,52.0460976 30,49.8661282 C33.573687,47.3777909 38.4233105,47.3779335 42,49.8666987 C41.9545527,52.0252735 40.8638173,53.9202666 39.2338557,55.0133892 Z M70,65 L65.10841,65 L65.10841,59.5320579 C65.10841,58.7856 64.4550207,58.1805137 63.6489745,58.1805137 C62.8429283,58.1805137 62.189539,58.7856 62.189539,59.5320579 L62.189539,65 L51.6889005,65 C50.5714107,60.5199015 46.5557739,59.4235289 42.9544708,58.4398751 C42.6392328,58.3547278 42.3196164,58.2668774 42,58.176324 L42,56.922091 C44.2694222,55.3421359 45.7390738,52.8282638 45.7390738,50.0035365 L45.7390738,48.1154294 C45.7390738,47.9520277 45.733236,47.7898424 45.7234578,47.628468 C46.0759115,47.53832 46.428803,47.4500642 46.7761487,47.3634302 C47.2492976,47.2453053 47.7298898,47.1250178 48.2084387,47 C48.9956582,49.1936913 51.2312215,50.7809447 53.8609783,50.7809447 C56.4924865,50.7809447 58.7296552,49.1938264 59.5174585,47 C59.9923588,47.1242069 60.4695942,47.2438186 60.9395325,47.3611326 C66.5177869,48.7534934 69.9125798,49.932175 70,54.5402648 L70,65 L70,65 Z M66.7723708,46 C64.917221,45.2836436 62.8758574,44.8270309 60.9981881,44.4071378 C60.3078456,44.2527862 59.6417312,44.1038459 59,43.9476905 L59,41.9029827 C60.9374628,40.9670811 62.5504879,39.6174708 63.6604716,38 C65.4258535,40.7760098 68.4801336,42.3514785 71,43.2215422 C70.256387,45.0153965 69.2091476,45.6592154 66.7723708,46 Z" id="Shape"></path>
                    <path d="M35.9571552,17.6104175 C36.2477833,17.8701392 36.6234842,18 36.9991851,18 C37.374886,18 37.7504368,17.8701392 38.0412149,17.6104175 L45.9810472,10.5164048 C48.605102,8.17404867 48.6814725,4.29239025 46.1504427,1.86253431 C44.9279144,0.691286798 43.2801719,0.0301770925 41.5108967,0.00101048784 C39.8280448,-0.0267672309 38.2380678,0.518926053 36.9991851,1.54211832 C35.7597022,0.518787165 34.1694251,-0.0263505651 32.4876234,0.00101048784 C30.7183483,0.0301770925 29.0706057,0.691425687 27.8458268,1.86461764 C25.3192983,4.2954458 25.3961189,8.17668755 28.0168727,10.5159881 L35.9571552,17.6104175 Z M30.0070114,4.02326667 C30.6731042,3.37987445 31.5732296,3.01666239 32.5419146,3.00056008 C32.5642677,3.00028004 32.5866208,3 32.6091239,3 C33.5523053,3 34.4383287,3.33184756 35.1114725,3.93883457 L35.9577404,4.7009638 C36.5389214,5.22435882 37.4598997,5.22435882 38.0410806,4.7009638 L38.8882486,3.93813447 C39.5763945,3.3174255 40.4864213,2.98459779 41.4569065,3.00056008 C42.4255914,3.01666239 43.3257168,3.37987445 43.9907594,4.02228653 C45.3721519,5.35933817 45.330296,7.49632447 43.8969964,8.78632937 L36.9994855,15 L30.1015246,8.78590931 C28.6700252,7.49758465 28.6287694,5.36017829 30.0070114,4.02326667 L30.0070114,4.02326667 Z" id="Shape"></path>
                    <path d="M35.9985521,69 C35.4470518,69 35,69.4477 35,70 C35,70.5523 35.4470518,71 35.9985521,71 L36.0042438,71 C36.5557442,71 37,70.5523 37,70 C37,69.4477 36.5500524,69 35.9985521,69 Z" id="Path"></path>
                </g>
            </g>
        </g>
    </g>
</svg>