<?xml version="1.0" encoding="UTF-8"?>
<svg width="20px" height="13px" viewBox="0 0 20 13" version="1.1" xmlns="http://www.w3.org/2000/svg" xmlns:xlink="http://www.w3.org/1999/xlink">
    <title>559D9564-D7C9-4A40-A6F3-F56D0030EAB5</title>
    <g id="Page-1" stroke="none" stroke-width="1" fill="none" fill-rule="evenodd">
        <g id="Home" transform="translate(-1022.000000, -1293.000000)" fill="#FFFFFF" fill-rule="nonzero">
            <g id="860781-copy" transform="translate(1022.000000, 1293.000000)">
                <path d="M19.6559414,1.54853556 C19.4454393,1.4183682 19.1825105,1.40648536 18.9611297,1.51711297 L14.2817155,3.85715481 L14.2817155,2.15619247 C14.2817155,0.973054393 13.3225941,0.0139330544 12.1394561,0.0139330544 L2.14225941,0.0139330544 C0.959121339,0.0139330544 0,0.973054393 0,2.15619247 L0,10.7252301 C0,11.9083682 0.959121339,12.8674895 2.14225941,12.8674895 L12.1394561,12.8674895 C13.3225941,12.8674895 14.2817155,11.9083682 14.2817155,10.7252301 L14.2817155,9.02426778 L18.9611297,11.3679079 C19.3139331,11.5441841 19.7428033,11.4011297 19.9191213,11.0483264 C19.9692469,10.9480335 19.9950628,10.8373222 19.9944463,10.7252301 L19.9944463,2.15619247 C19.9944463,1.90866109 19.8664854,1.67874477 19.6559414,1.54853556 Z M7.14087866,9.29707113 C5.56334728,9.29707113 4.28451883,8.01824268 4.28451883,6.4407113 C4.28451883,4.86317992 5.56334728,3.58435146 7.14087866,3.58435146 C8.71841004,3.58435146 9.99723849,4.86317992 9.99723849,6.4407113 C9.99723849,8.01824268 8.7183682,9.29707113 7.14087866,9.29707113 Z" id="Shape"></path>
            </g>
        </g>
    </g>
</svg>