<?xml version="1.0" encoding="UTF-8"?>
<svg width="30px" height="21px" viewBox="0 0 30 21" version="1.1" xmlns="http://www.w3.org/2000/svg" xmlns:xlink="http://www.w3.org/1999/xlink">
    <title>956C608B-D66F-415F-BAC8-1C6E2DD9DD1F</title>
    <g id="Page-1" stroke="none" stroke-width="1" fill="none" fill-rule="evenodd">
        <g id="Home" transform="translate(-329.000000, -824.000000)" fill="#D30F99" fill-rule="nonzero">
            <g id="860781" transform="translate(329.000000, 824.000000)">
                <path d="M29.4920857,2.88782552 C29.176245,2.68528646 28.7817424,2.66679688 28.4495792,2.83893229 L21.428512,6.48001302 L21.428512,3.83333333 C21.428512,1.99238281 19.9894312,0.5 18.2142321,0.5 L3.21427994,0.5 C1.43908084,0.5 0,1.99238281 0,3.83333333 L0,17.1666667 C0,19.0076172 1.43908084,20.5 3.21427994,20.5 L18.2142321,20.5 C19.9894312,20.5 21.428512,19.0076172 21.428512,17.1666667 L21.428512,14.519987 L28.4495792,18.1666667 C28.9789309,18.4409505 29.6224147,18.2183594 29.886965,17.669401 C29.9621741,17.5133464 30.0009087,17.3410807 29.9999838,17.1666667 L29.9999838,3.83333333 C29.9999838,3.44817708 29.8079892,3.09042969 29.4920857,2.88782552 Z M10.7142874,14.9444661 C8.34733434,14.9444661 6.42855988,12.9546224 6.42855988,10.5 C6.42855988,8.0453776 8.34733434,6.05553385 10.7142874,6.05553385 C13.0812405,6.05553385 15.0000149,8.0453776 15.0000149,10.5 C15.0000149,12.9546224 13.0811777,14.9444661 10.7142874,14.9444661 Z" id="Shape"></path>
            </g>
        </g>
    </g>
</svg>